<svg id="Layer_1" data-name="Layer 1" xmlns="http://www.w3.org/2000/svg" viewBox="0 0 97.9 90.4"><defs><style>.cls-1{fill:#fff;}</style></defs><g id="_3OcV3n.tif" data-name="3OcV3n.tif"><path class="cls-1" d="M98.9,66.83a3.89,3.89,0,0,1-4.35,2.64,21,21,0,0,0-2.86,0,1.3,1.3,0,0,0-.85.53,15.34,15.34,0,0,1-1,1.64c-.93,1-.72,1.91-.12,3,2,3.85,4,7.76,5.94,11.65,1.25,2.46.14,4.34-2.6,4.41a17.85,17.85,0,0,1-2.19.06,2.66,2.66,0,0,0-2.81,1.47,15.31,15.31,0,0,1-1.44,1.9,2.71,2.71,0,0,1-4.76-.46c-2.09-4.07-4.14-8.17-6.22-12.25-.23-.46-.33-1-1.11-1s-1.25.12-1.64.91c-2,4-4.06,8.07-6.1,12.1-1.18,2.31-3.43,2.51-5,.46-.64-.83-1.24-1.7-2-2.47a2.08,2.08,0,0,0-1.24-.62c-1-.12-2.1-.11-3.15-.14-2.67-.07-3.79-2-2.57-4.38,2-4,4.1-8,6.11-12.1a1.39,1.39,0,0,0,0-1.16A19.07,19.07,0,0,1,55.4,63.9a5.15,5.15,0,0,0-.15-.65H54c-12.49,0-25,0-37.48,0a4.62,4.62,0,0,1-3.77-1.63C11.35,60,9.84,58.45,8.34,56.89A4,4,0,0,1,7.17,54q0-19.5,0-39c0-2.41,1.39-3.75,3.82-3.76,1.12,0,2.23,0,3.35,0a1.44,1.44,0,1,1,0,2.86c-1.14,0-2.29,0-3.44,0-.61,0-.88.26-.87.85,0,.2,0,.39,0,.58q0,19,0,37.95a2.46,2.46,0,0,0,.74,1.86c1.45,1.48,2.82,3,4.28,4.5a1.91,1.91,0,0,0,1.21.55q19.21,0,38.43,0a4.46,4.46,0,0,0,.54-.06c1.33-8.66,5.93-14.62,14.53-16.65,8.27-2,14.9,1.14,20,7.95,0-.31.08-.54.08-.76,0-10.33,0-20.65,0-31a2.25,2.25,0,0,0-.58-1.41C88,17.19,86.7,16,85.45,14.71a2.14,2.14,0,0,0-1.69-.66q-30.73,0-61.47,0a6.12,6.12,0,0,1-1.05,0A1.34,1.34,0,0,1,20,12.67a1.35,1.35,0,0,1,1.24-1.45,4.94,4.94,0,0,1,.86,0q30.93,0,61.86,0a4.44,4.44,0,0,1,3.4,1.41c1.33,1.37,2.72,2.69,4.1,4a3.88,3.88,0,0,1,1.26,3q0,21.08,0,42.15c0,1.58-.29,3.16-.45,4.85,1,0,2.06,0,3.09,0,.25,0,.5-.44.66-.72s0-.44,0-.66V9.34C96,7.9,96,7.9,94.54,7.9H5.34c-1.47,0-1.47,0-1.47,1.46V65.09c0,1.5,0,1.5,1.55,1.5H49.87c1.56,0,2.23.45,2.2,1.46s-.68,1.41-2.17,1.41H5.06c-2.77,0-4.06-1.28-4.06-4V9C1,6.31,2.27,5,4.92,5Q49.71,5,94.5,5c2.09,0,3.58.6,4.4,2.57ZM74,46a15.85,15.85,0,1,0,15.83,15.9A15.82,15.82,0,0,0,74,46ZM84.43,92.38c.87-1.13,1.65-2.1,2.39-3.09A2.88,2.88,0,0,1,89.34,88c1.26,0,2.52,0,4,0L86.92,75.36a19.24,19.24,0,0,1-8.72,4.73ZM61.5,75.76,55.3,88c1.42,0,2.6,0,3.77,0A3.22,3.22,0,0,1,62,89.49c.68,1,1.42,1.87,2.21,2.89l6.17-12.17A19.31,19.31,0,0,1,61.5,75.76Z" transform="translate(-1 -5)"/><path class="cls-1" d="M50.12,32H69.33c2.46,0,3.49,1,3.5,3.47,0,1.21,0,2.42,0,3.63a2.89,2.89,0,0,1-3.15,3.07H30.5A2.88,2.88,0,0,1,27.36,39c0-1.28,0-2.55,0-3.82A2.86,2.86,0,0,1,30.53,32ZM30.27,39.24H69.89V34.92H30.27Z" transform="translate(-1 -5)"/><path class="cls-1" d="M32.15,51.34a32.53,32.53,0,0,1,3.61-1.54c2.23-.63,3.72.43,4.1,2.72,0,.25.11.49.18.81a14.69,14.69,0,0,1,8.45-1,1.4,1.4,0,0,1,1.27,1.6A1.52,1.52,0,0,1,48,55.14a30.84,30.84,0,0,0-4.08,0,9.25,9.25,0,0,0-4.7,2,1.52,1.52,0,0,1-2,.25c-.69-.47-.65-1.14-.5-1.88.19-.95.28-1.92.44-3.18a8.33,8.33,0,0,0-1.84.66c-1.4,1-2.78,2.11-4.1,3.24-.63.55-1.23,1-2,.5s-.72-1.19-.57-2a42.73,42.73,0,0,0,.6-4.91,2,2,0,0,0-.73-1.59,2.17,2.17,0,0,0-1.82.37A9.06,9.06,0,0,0,24.52,51c-.95,1.53-1.73,3.18-2.53,4.8-.49,1-1.19,1.41-2,1.07s-1-1.11-.66-2.11a22.12,22.12,0,0,1,4.5-7.47,6.41,6.41,0,0,1,3.41-2c2.68-.48,4.67,1.24,4.92,4.25C32.2,50.12,32.15,50.75,32.15,51.34Z" transform="translate(-1 -5)"/><path class="cls-1" d="M50,25.31H62.2c.32,0,.72-.1.93.06a2.9,2.9,0,0,1,1.13,1.21,1.16,1.16,0,0,1-.88,1.47,3,3,0,0,1-.94.12h-25a2.89,2.89,0,0,1-.66-.05,1.33,1.33,0,0,1-1.15-1.51,1.31,1.31,0,0,1,1.29-1.29c.31,0,.63,0,1,0Z" transform="translate(-1 -5)"/><path class="cls-1" d="M49.88,21h-6.2c-1.15,0-1.76-.52-1.77-1.42s.62-1.44,1.76-1.44h12.6c1.12,0,1.74.57,1.72,1.48S57.37,21,56.28,21Z" transform="translate(-1 -5)"/><path class="cls-1" d="M18.89,35.65c.67,0,1.34,0,2,0A1.41,1.41,0,0,1,21,38.48c-1.43.06-2.87.06-4.3,0A1.4,1.4,0,0,1,15.35,37a1.42,1.42,0,0,1,1.44-1.36C17.49,35.63,18.19,35.65,18.89,35.65Z" transform="translate(-1 -5)"/><path class="cls-1" d="M81.34,35.65c.67,0,1.34,0,2,0A1.38,1.38,0,0,1,84.77,37a1.35,1.35,0,0,1-1.32,1.46c-1.43.06-2.87.06-4.3,0a1.41,1.41,0,0,1,.09-2.82C79.94,35.63,80.64,35.65,81.34,35.65Z" transform="translate(-1 -5)"/><path class="cls-1" d="M91.71,10.45a1.42,1.42,0,1,1-1.39,1.42A1.46,1.46,0,0,1,91.71,10.45Z" transform="translate(-1 -5)"/><path class="cls-1" d="M9.12,62.32a1.43,1.43,0,0,1-1.41,1.39,1.4,1.4,0,0,1-1.38-1.5,1.37,1.37,0,0,1,1.44-1.32A1.39,1.39,0,0,1,9.12,62.32Z" transform="translate(-1 -5)"/><path class="cls-1" d="M86.17,61.79A12.19,12.19,0,1,1,73.91,49.63,12.23,12.23,0,0,1,86.17,61.79ZM74,70c3.53-4.39,3.46-13.63-.07-16.31A14.71,14.71,0,0,0,74,70Zm-3.09.57a17.92,17.92,0,0,1-.09-17.37c-3.47,1-6.14,4.74-6.17,8.56A9.19,9.19,0,0,0,70.93,70.53Zm6.24,0a9.14,9.14,0,0,0,6.11-9.23c-.24-3.69-3.08-7.51-6-8A17,17,0,0,1,77.17,70.48Z" transform="translate(-1 -5)"/></g></svg>